<svg xmlns="http://www.w3.org/2000/svg" xmlns:xlink="http://www.w3.org/1999/xlink" viewBox="0 0 492 492"><defs><style>.cls-1{fill:#fff;}.cls-2{fill:url(#linear-gradient);}.cls-3,.cls-4{fill:#5ca500;}.cls-4{opacity:0.39;}.cls-5{fill:url(#linear-gradient-2);}.cls-6{fill:#0685d2;}</style><linearGradient id="linear-gradient" y1="246" x2="492" y2="246" gradientUnits="userSpaceOnUse"><stop offset="0" stop-color="#0685d2"/><stop offset="1" stop-color="#076da0"/></linearGradient><linearGradient id="linear-gradient-2" x1="228.44" y1="109.51" x2="321.22" y2="405.12" gradientUnits="userSpaceOnUse"><stop offset="0" stop-color="#5ca500"/><stop offset="1" stop-color="#3e6303"/></linearGradient></defs><title>Asset 13</title><g id="Layer_2" data-name="Layer 2"><g id="Layer_1-2" data-name="Layer 1"><circle class="cls-1" cx="246" cy="246" r="246"/><path class="cls-2" d="M246,32a214.07,214.07,0,0,1,83.29,411.2A214.07,214.07,0,0,1,162.71,48.8,212.65,212.65,0,0,1,246,32m0-32C110.14,0,0,110.14,0,246S110.14,492,246,492,492,381.86,492,246,381.86,0,246,0Z"/><path class="cls-3" d="M245.59,123.12c-1,2-2.14,4.39-3.33,7.22l-.37,0C242.94,128.17,244.18,125.75,245.59,123.12Z"/><path class="cls-4" d="M249.06,116.9c-1.26,2.18-2.41,4.26-3.47,6.22C247.46,119.41,248.83,117.26,249.06,116.9Z"/><path class="cls-5" d="M244,181.34c-14.5,26.43-10.35,66.41-6.79,87.12a54,54,0,0,1,6.82-6h0c12.07-9.63,20.31-12.81,31.32-13.26-19-6.62-31.56,6.83-36.14,13.06.54-2.81,9.39-43.25,57.6-8.94C277.77,260,264.91,272,253.57,271.58h0c-5,.15-8.33-1.54-11.64-2.57a10.38,10.38,0,0,0-3.73,4.52c.11.62.23,1.21.34,1.76h0s3.52,12.79,3.52,16.87c0,2.78,1.41,12.17,2.32,17.88.23,1.45.42,2.66.56,3.46,0,.11,0,.21,0,.3,0,.26.08.53.13.8,1.67,10.2,7.9,24.69,28,26,34.17,1,40.79,9.69,44.87,22.95-9.17-13.26-14.27-15.3-32.63-16.83a43.82,43.82,0,0,1,12.24,21.93c-7.65-14.79-15.3-18.36-20.91-21.42C241,352.33,237,318.17,237,318.17s-2,13.25-2,20.39,5.61,20.91,15.8,29.58c12.55,8.53,16.21,24.48,16.32,25-.25-.32-8.26-10.75-14.79-14.26,7.14,21.92,2,37.22-8.15,50.48,12.74-32.13,2-46.91-5.1-60.68-15.81-26.52-12.75-31.11-12.75-44.87-7.14,11.72-3.06,13.76-11.22,32.12s-19.89,24-37.73,29.58c7.59-3.62,20.32-14.17,28.16-24.72-5.23,1.38-14.91,2.86-24.59-1.29,0,0,12.74,0,19.88-3.57s9.9-7.25,12.85-17.61v0a86.12,86.12,0,0,1,8.27-21.8h0c.18-.49,4.39-12.16,5.39-17.65,1-5.2.18-20.44.06-22.63a.71.71,0,0,1,0-.14c-.77-10.74-2.13-34-1.21-52.85-1.69-4.8-5.54-12.27-13.63-14.64-4.9,3.4-9.53,7.91-17.81,10.23l0,0c-18.41,6.54-45.79-6.64-80.57-7.7,61.55-81.26,97-19.35,99.3-15-10.75-7.87-38.3-23.52-66.16-2.82,18.34-4.92,33.54-4,58.34,5.65h0c.48.16,15,5.09,21.65,11.57l.06-.4a117.73,117.73,0,0,1,8-28.93c1-2.46,2-4.55,2.89-6.27s1.92-3.5,3-5.39l0,0c12.29-21.2,35.86-52.75,72.27-65.43-33,10.23-69.42,36.57-82.15,64.73C229,141.82,237.8,80,365.45,80,339.08,97.62,321.6,180.19,244,181.34Z"/><path class="cls-3" d="M253.44,283c-.16-.93-.39-2.32-.64-4l.25,0C253.12,280.14,253.24,281.5,253.44,283Z"/><path class="cls-3" d="M253.64,284.21h0c0-.31-.1-.62-.14-.92C253.59,283.88,253.64,284.21,253.64,284.21Z"/><path class="cls-6" d="M377.68,231.9s-.05.1-.11.22a.36.36,0,0,0,0-.09Z"/></g></g></svg>