<svg xmlns="http://www.w3.org/2000/svg" xmlns:xlink="http://www.w3.org/1999/xlink" viewBox="0 0 1026.54 1096.5"><defs><style>.cls-1{fill:url(#linear-gradient);}.cls-2,.cls-4{fill:#5ca500;}.cls-3{fill:url(#linear-gradient-2);}.cls-4{opacity:0.39;}.cls-5{fill:url(#linear-gradient-3);}.cls-6{fill:#0685d2;}.cls-7{fill:url(#linear-gradient-4);}.cls-8{fill:#1dcaff;}.cls-9{fill:url(#linear-gradient-5);}.cls-10{fill:url(#linear-gradient-6);}</style><linearGradient id="linear-gradient" x1="216.51" y1="404" x2="804.51" y2="404" gradientUnits="userSpaceOnUse"><stop offset="0" stop-color="#0685d2"></stop><stop offset="1" stop-color="#076da0"></stop></linearGradient><linearGradient id="linear-gradient-2" x1="269.51" y1="547.12" x2="752.51" y2="547.12" gradientUnits="userSpaceOnUse"><stop offset="0" stop-color="#0bacfc"></stop><stop offset="1" stop-color="#0685d2"></stop></linearGradient><linearGradient id="linear-gradient-3" x1="490.82" y1="66.81" x2="672.78" y2="646.52" gradientUnits="userSpaceOnUse"><stop offset="0" stop-color="#5ca500"></stop><stop offset="1" stop-color="#3e6303"></stop></linearGradient><linearGradient id="linear-gradient-4" x1="350.22" y1="391.9" x2="278.57" y2="391.9" gradientTransform="translate(39.76 -29.11) rotate(5.65)" gradientUnits="userSpaceOnUse"><stop offset="0.01" stop-color="#0bacfc" stop-opacity="0.61"></stop><stop offset="1" stop-color="#0685d2"></stop></linearGradient><linearGradient id="linear-gradient-5" x1="340.79" y1="345.35" x2="291.51" y2="345.35" gradientTransform="translate(2.13 -3.29) rotate(0.55)" xlink:href="#linear-gradient-4"></linearGradient><linearGradient id="linear-gradient-6" x1="386.95" y1="346.18" x2="347.25" y2="346.18" gradientTransform="matrix(0.83, 0.56, -0.56, 0.83, 248.91, -144.6)" xlink:href="#linear-gradient-4"></linearGradient></defs><title>Asset 5</title><g id="Layer_2" data-name="Layer 2"><g id="Layer_1-2" data-name="Layer 1"><path class="cls-1" d="M503.51,0c-225,286-287,351.63-287,514s131.63,294,294,294,294-131.63,294-294S776.51,310,503.51,0Zm7.14,733C368.79,733,253.8,618,253.8,476.1S308,276.91,504.54,27c238.51,270.84,263,307.2,263,449.06S652.51,733,510.65,733Z"></path><path class="cls-2" d="M509.82,195c-1.71,3.36-3.65,7.47-5.67,12.28l-.63,0C505.31,203.56,507.41,199.45,509.82,195Z"></path><path class="cls-3" d="M752.51,472.5C752.51,605.88,644.39,714,511,714s-241.5-108.12-241.5-241.5a242.31,242.31,0,0,1,1.72-28.93c0-.39.09-.78.14-1.17,9.56-6.67,97.48-65.78,171.14-38.4,78,29,122,63,181,44,56.58-18.22,106.72-64,110.74-67.76a1,1,0,0,1,.07.15A240.81,240.81,0,0,1,752.51,472.5Z"></path><path class="cls-4" d="M515.72,184.4c-2.14,3.7-4.11,7.24-5.9,10.57A119.14,119.14,0,0,1,515.72,184.4Z"></path><path class="cls-5" d="M521.42,207.66C493,259.51,501.13,337.91,508.1,378.52a107,107,0,0,1,13.37-11.75h0c23.66-18.89,39.83-25.12,61.43-26-37.31-13-61.9,13.41-70.89,25.62,1.07-5.5,18.42-84.81,113-17.54-37.42,13-62.65,36.64-84.88,35.82h0c-9.78.3-16.34-3-22.83-5a20.33,20.33,0,0,0-7.32,8.87c.23,1.21.46,2.36.68,3.45h0s6.9,25.08,6.9,33.08c0,5.45,2.78,23.86,4.56,35.07.44,2.83.83,5.2,1.09,6.78,0,.21.06.41.09.59q.11.76.24,1.56c3.29,20,15.5,48.42,55,51,67,2,80,19,88,45-18-26-28-30-64-33a85.93,85.93,0,0,1,24,43c-15-29-30-36-41-42-70,10-78-57-78-57s-4,26-4,40,11,41,31,58c24.61,16.73,31.78,48,32,49-.49-.63-16.19-21.09-29-28,14,43,4,73-16,99,25-63,4-92-10-119-31-52-25-61-25-88-14,23-6,27-22,63s-39,47-74,58c14.9-7.09,39.86-27.78,55.24-48.48-10.26,2.72-29.25,5.62-48.24-2.52,0,0,25,0,39-7s19.41-14.22,25.19-34.53l0-.09a168.58,168.58,0,0,1,16.21-42.74v0c.34-.95,8.6-23.84,10.56-34.61,1.86-10.2.35-40.09.12-44.37,0-.11,0-.21,0-.29-1.5-21-4.17-66.61-2.37-103.63-3.31-9.42-10.87-24.08-26.73-28.71-9.62,6.66-18.69,15.51-34.92,20.06,0,0,0,0-.07,0-36.11,12.82-89.79-13-158-15.09,120.72-159.36,190.15-37.95,194.75-29.46-21.08-15.43-75.11-46.13-129.75-5.54,36-9.65,65.77-7.76,114.4,11.08h0c.94.31,29.38,10,42.47,22.68,0-.26.07-.52.11-.77a231,231,0,0,1,15.64-56.75c2-4.81,4-8.92,5.67-12.28s3.76-6.87,5.9-10.57l.06-.09C539.88,142.74,586.09,80.87,657.51,56,592.76,76.06,521.37,127.72,496.4,182.93,492,130.17,509.18,9,759.51,9,707.8,43.48,673.52,205.41,521.42,207.66Z"></path><path class="cls-2" d="M523.16,466.85c-.26-1.58-.65-4-1.09-6.78l.44-.07C522.62,462.08,522.82,464.38,523.16,466.85Z"></path><path class="cls-2" d="M523.51,469h0q-.13-.79-.24-1.56C523.42,468.44,523.51,469,523.51,469Z"></path><path class="cls-6" d="M270.51,443l.86-.6c-.05.39-.1.78-.14,1.17Z"></path><path class="cls-6" d="M734.5,380l-.18.37a1,1,0,0,0-.07-.15Z"></path><path class="cls-2" d="M14.53,883.43v47.1H69v-47.1h14.7V996H69V943.22H14.53V996H0V883.43Z"></path><path class="cls-2" d="M132.77,996V948.23l-35.58-64.8h16.54l15.86,31.07c4.35,8.51,7.69,15.36,11.19,23.21h.34c3.17-7.35,7-14.7,11.35-23.21l16.2-31.07h16.54l-37.75,64.64V996Z"></path><path class="cls-2" d="M196.89,884.94a207.75,207.75,0,0,1,30.9-2.34c20.88,0,35.74,4.84,45.59,14,10,9.18,15.87,22.21,15.87,40.41,0,18.37-5.68,33.4-16.2,43.76-10.52,10.52-27.89,16.2-49.77,16.2a233.38,233.38,0,0,1-26.39-1.34Zm14.53,99.53a91.52,91.52,0,0,0,14.7.84c31.06,0,47.93-17.37,47.93-47.77.17-26.55-14.86-43.42-45.59-43.42a82.13,82.13,0,0,0-17,1.51Z"></path><path class="cls-2" d="M308.11,884.94c7.35-1.51,17.87-2.34,27.89-2.34,15.54,0,25.56,2.84,32.57,9.18,5.68,5,8.85,12.7,8.85,21.38,0,14.86-9.35,24.72-21.21,28.73v.5c8.69,3,13.86,11,16.54,22.71,3.67,15.7,6.34,26.55,8.68,30.9h-15c-1.84-3.18-4.34-12.86-7.52-26.89-3.34-15.53-9.35-21.38-22.54-21.88h-13.7V996H308.11Zm14.53,51.27h14.87c15.53,0,25.38-8.52,25.38-21.38,0-14.53-10.52-20.87-25.88-21-7,0-12,.67-14.37,1.33Z"></path><path class="cls-2" d="M494.65,938.55c0,38.74-23.54,59.28-52.27,59.28-29.73,0-50.6-23-50.6-57.11,0-35.74,22.21-59.12,52.27-59.12C474.78,881.6,494.65,905.15,494.65,938.55Zm-87.34,1.83c0,24,13,45.6,35.91,45.6,23,0,36.07-21.21,36.07-46.77,0-22.37-11.69-45.76-35.91-45.76C419.33,893.45,407.31,915.67,407.31,940.38Z"></path><path class="cls-2" d="M513.52,884.77a168.28,168.28,0,0,1,27.89-2.17c14.36,0,24.88,3.34,31.56,9.35,6.18,5.35,9.86,13.53,9.86,23.55,0,10.19-3,18.2-8.69,24-7.68,8.18-20.2,12.36-34.4,12.36a50.3,50.3,0,0,1-11.69-1V996H513.52Zm14.53,54.28a48.93,48.93,0,0,0,12,1.17c17.54,0,28.23-8.52,28.23-24.05,0-14.87-10.52-22-26.56-22-6.34,0-11.19.5-13.69,1.17Z"></path><path class="cls-2" d="M698.56,938.55c0,38.74-23.55,59.28-52.27,59.28-29.73,0-50.61-23-50.61-57.11,0-35.74,22.22-59.12,52.28-59.12C678.69,881.6,698.56,905.15,698.56,938.55Zm-87.35,1.83c0,24,13,45.6,35.91,45.6,23,0,36.08-21.21,36.08-46.77,0-22.37-11.7-45.76-35.91-45.76C623.24,893.45,611.21,915.67,611.21,940.38Z"></path><path class="cls-2" d="M717.43,996V883.43h15.86l36.08,57A317.94,317.94,0,0,1,789.57,977l.34-.17c-1.34-15-1.67-28.72-1.67-46.26v-47.1h13.69V996h-14.7L751.5,938.88c-7.85-12.53-15.37-25.38-21-37.58l-.5.17c.84,14.2,1.17,27.72,1.17,46.43V996Z"></path><path class="cls-2" d="M841.84,883.43V996H827.31V883.43Z"></path><path class="cls-2" d="M945.88,992.32c-5.34,2.68-16,5.35-29.72,5.35-31.74,0-55.62-20-55.62-56.95,0-35.24,23.88-59.12,58.79-59.12,14,0,22.88,3,26.72,5l-3.51,11.85a53,53,0,0,0-22.71-4.67c-26.39,0-43.92,16.87-43.92,46.43,0,27.55,15.86,45.26,43.25,45.26,8.85,0,17.87-1.84,23.72-4.68Z"></path><path class="cls-2" d="M962.08,978.29a51.45,51.45,0,0,0,26,7.35c14.86,0,23.55-7.85,23.55-19.2,0-10.52-6-16.54-21.21-22.38-18.37-6.52-29.73-16-29.73-31.9,0-17.54,14.53-30.56,36.41-30.56,11.52,0,19.87,2.67,24.88,5.51L1018,899a44.73,44.73,0,0,0-21.37-5.35c-15.37,0-21.21,9.19-21.21,16.87,0,10.52,6.84,15.7,22.38,21.71,19,7.35,28.72,16.53,28.72,33.07,0,17.37-12.86,32.4-39.41,32.4-10.86,0-22.72-3.18-28.73-7.18Z"></path><path class="cls-6" d="M153,1095.44l-16.41-64.69h8.83l7.68,32.73c1.92,8.06,3.65,16.13,4.8,22.37h.19c1.06-6.44,3.07-14.12,5.28-22.47l8.64-32.63h8.73l7.88,32.83c1.82,7.67,3.55,15.35,4.51,22.17h.19c1.34-7.1,3.17-14.3,5.18-22.37l8.55-32.63h8.54l-18.33,64.69h-8.74l-8.16-33.69a192.45,192.45,0,0,1-4.22-21.12H176a204.44,204.44,0,0,1-5,21.12l-9.21,33.69Z"></path><path class="cls-6" d="M257.17,1065.11H232v23.33h28v7H223.67v-64.69h34.94v7H232v20.45h25.15Z"></path><path class="cls-6" d="M270.9,1031.61a80.83,80.83,0,0,1,15.26-1.34c8.35,0,13.73,1.44,17.76,4.7,3.36,2.49,5.38,6.33,5.38,11.42,0,6.24-4.13,11.71-10.95,14.21v.19c6.15,1.54,13.35,6.63,13.35,16.22a17.44,17.44,0,0,1-5.47,13c-4.52,4.13-11.81,6-22.37,6a96.48,96.48,0,0,1-13-.77Zm8.35,26.49h7.58c8.84,0,14-4.6,14-10.84,0-7.59-5.76-10.56-14.21-10.56a35.84,35.84,0,0,0-7.39.57Zm0,31a44.45,44.45,0,0,0,7,.38c8.64,0,16.61-3.16,16.61-12.57,0-8.83-7.59-12.48-16.71-12.48h-6.91Z"></path><path class="cls-6" d="M321.78,1085.27a29.6,29.6,0,0,0,15,4.22c8.55,0,13.54-4.51,13.54-11,0-6-3.46-9.5-12.19-12.86-10.56-3.74-17.09-9.21-17.09-18.33,0-10.08,8.35-17.57,20.93-17.57,6.62,0,11.42,1.54,14.3,3.17l-2.3,6.81a25.79,25.79,0,0,0-12.29-3.07c-8.83,0-12.19,5.28-12.19,9.7,0,6,3.93,9,12.86,12.48,10.95,4.22,16.51,9.5,16.51,19,0,10-7.39,18.62-22.65,18.62-6.24,0-13.06-1.82-16.51-4.12Z"></path><path class="cls-6" d="M378.61,1030.75v64.69h-8.35v-64.69Z"></path><path class="cls-6" d="M405.49,1037.85H385.81v-7.1h47.9v7.1H413.94v57.59h-8.45Z"></path><path class="cls-6" d="M474.42,1065.11H449.27v23.33h28v7H440.91v-64.69h34.95v7H449.27v20.45h25.15Z"></path><path class="cls-6" d="M553.71,1093.33c-3.07,1.54-9.22,3.07-17.09,3.07-18.24,0-32-11.51-32-32.73,0-20.25,13.72-34,33.79-34,8.06,0,13.15,1.73,15.35,2.88l-2,6.81a30.53,30.53,0,0,0-13.06-2.68c-15.16,0-25.24,9.69-25.24,26.68,0,15.84,9.12,26,24.86,26a33.45,33.45,0,0,0,13.63-2.69Z"></path><path class="cls-6" d="M617.45,1062.42c0,22.27-13.53,34.08-30,34.08-17.09,0-29.09-13.25-29.09-32.83,0-20.54,12.77-34,30-34C606,1029.69,617.45,1043.22,617.45,1062.42Zm-50.2,1.06c0,13.82,7.48,26.21,20.64,26.21s20.73-12.2,20.73-26.88c0-12.87-6.72-26.31-20.64-26.31S567.25,1049.27,567.25,1063.48Z"></path><path class="cls-6" d="M628.3,1095.44v-64.69h9.12l20.74,32.73a182.72,182.72,0,0,1,11.61,21l.19-.09c-.76-8.64-1-16.51-1-26.59v-27.07h7.88v64.69h-8.45l-20.54-32.82a204.08,204.08,0,0,1-12.1-21.6l-.29.09c.48,8.16.67,15.94.67,26.69v27.64Z"></path><path class="cls-6" d="M736.68,1093.33c-3.07,1.54-9.21,3.07-17.08,3.07-18.24,0-32-11.51-32-32.73,0-20.25,13.73-34,33.79-34,8.06,0,13.15,1.73,15.36,2.88l-2,6.81a30.52,30.52,0,0,0-13-2.68c-15.17,0-25.25,9.69-25.25,26.68,0,15.84,9.12,26,24.86,26a33.45,33.45,0,0,0,13.63-2.69Z"></path><path class="cls-6" d="M780.65,1065.11H755.5v23.33h28v7H747.15v-64.69h34.94v7H755.5v20.45h25.15Z"></path><path class="cls-6" d="M794.38,1031.51a97.11,97.11,0,0,1,16-1.24c8.26,0,14.3,1.92,18.14,5.37,3.55,3.07,5.67,7.78,5.67,13.54s-1.73,10.46-5,13.82c-4.42,4.7-11.62,7.1-19.78,7.1a28.75,28.75,0,0,1-6.72-.57v25.91h-8.35Zm8.35,31.2a28,28,0,0,0,6.91.67c10.08,0,16.23-4.89,16.23-13.82,0-8.54-6-12.67-15.27-12.67a35.29,35.29,0,0,0-7.87.67Z"></path><path class="cls-6" d="M857.74,1037.85H838.06v-7.1H886v7.1H866.19v57.59h-8.45Z"></path><path class="cls-7" d="M351.2,377a21.27,21.27,0,0,1-19.89,22.58c-11.73.74-30.67,3.41-56.52,24.9,5.7-26.1,21.15-60.9,53.83-67.38A21.28,21.28,0,0,1,351.2,377Z"></path><path class="cls-8" d="M313.38,384.53A7.51,7.51,0,0,1,311.56,395c-3.39,2.39-22.66,11.65-29.32,18,6.55-15.43,14.7-26.68,20.69-30.29A7.51,7.51,0,0,1,313.38,384.53Z"></path><path class="cls-9" d="M339.51,332.62a14.64,14.64,0,0,1-12.25,16.69c-8,1.22-20.8,4.21-37.2,20.52,2.31-18.23,10.77-43,32.76-49.46A14.64,14.64,0,0,1,339.51,332.62Z"></path><path class="cls-8" d="M314.06,340.11a5.16,5.16,0,0,1-.61,7.27c-2.18,1.84-14.81,9.37-19,14.14,3.55-11,8.44-19.18,12.32-22A5.18,5.18,0,0,1,314.06,340.11Z"></path><path class="cls-10" d="M382.89,349.89a11.79,11.79,0,0,1-15.63,5.82c-5.92-2.71-15.87-6.37-34.12-2.64,9.62-11.26,26.28-24.2,43.94-18.81A11.79,11.79,0,0,1,382.89,349.89Z"></path><path class="cls-8" d="M362.44,343.68a4.15,4.15,0,0,1-3.63,4.62c-2.28.28-14.11-.25-19,1.12,7.24-5.82,14.16-9.18,18-9.37A4.16,4.16,0,0,1,362.44,343.68Z"></path></g></g></svg>