<svg xmlns="http://www.w3.org/2000/svg" xmlns:xlink="http://www.w3.org/1999/xlink" viewBox="0 0 588 808"><defs><style>.cls-1{fill:url(#linear-gradient);}.cls-2,.cls-4{fill:#5ca500;}.cls-3{fill:url(#linear-gradient-2);}.cls-4{opacity:0.39;}.cls-5{fill:url(#linear-gradient-3);}.cls-6{fill:#0685d2;}.cls-7{fill:url(#linear-gradient-4);}.cls-8{fill:#1dcaff;}.cls-9{fill:url(#linear-gradient-5);}.cls-10{fill:url(#linear-gradient-6);}</style><linearGradient id="linear-gradient" y1="404" x2="588" y2="404" gradientUnits="userSpaceOnUse"><stop offset="0" stop-color="#0685d2"></stop><stop offset="1" stop-color="#076da0"></stop></linearGradient><linearGradient id="linear-gradient-2" x1="53" y1="547.12" x2="536" y2="547.12" gradientUnits="userSpaceOnUse"><stop offset="0" stop-color="#0bacfc"></stop><stop offset="1" stop-color="#0685d2"></stop></linearGradient><linearGradient id="linear-gradient-3" x1="274.31" y1="66.81" x2="456.27" y2="646.52" gradientUnits="userSpaceOnUse"><stop offset="0" stop-color="#5ca500"></stop><stop offset="1" stop-color="#3e6303"></stop></linearGradient><linearGradient id="linear-gradient-4" x1="140.24" y1="226.17" x2="68.59" y2="226.17" gradientTransform="translate(15.88 156.49) rotate(5.65)" gradientUnits="userSpaceOnUse"><stop offset="0.01" stop-color="#0bacfc" stop-opacity="0.61"></stop><stop offset="1" stop-color="#0685d2"></stop></linearGradient><linearGradient id="linear-gradient-5" x1="125.64" y1="329.23" x2="76.35" y2="329.23" gradientTransform="translate(0.61 14.9) rotate(0.55)" xlink:href="#linear-gradient-4"></linearGradient><linearGradient id="linear-gradient-6" x1="-30.68" y1="-612.44" x2="-70.38" y2="-612.44" gradientTransform="translate(-154.98 884.12) rotate(33.86)" xlink:href="#linear-gradient-4"></linearGradient></defs><title>Asset 7</title><g id="Layer_2" data-name="Layer 2"><g id="Layer_1-2" data-name="Layer 1"><path class="cls-1" d="M287,0C62,286,0,351.63,0,514S131.63,808,294,808,588,676.37,588,514,560,310,287,0Zm7.14,733C152.28,733,37.29,618,37.29,476.1S91.45,276.91,288,27C526.54,297.88,551,334.24,551,476.1S436,733,294.14,733Z"></path><path class="cls-2" d="M293.31,195c-1.71,3.36-3.65,7.47-5.67,12.28l-.63,0C288.8,203.56,290.9,199.45,293.31,195Z"></path><path class="cls-3" d="M536,472.5C536,605.88,427.88,714,294.5,714S53,605.88,53,472.5a242.31,242.31,0,0,1,1.72-28.93c0-.39.09-.78.14-1.17,9.56-6.67,97.48-65.78,171.14-38.4,78,29,122,63,181,44,56.58-18.22,106.72-64,110.74-67.76a1,1,0,0,1,.07.15A240.81,240.81,0,0,1,536,472.5Z"></path><path class="cls-4" d="M299.21,184.4c-2.14,3.7-4.11,7.24-5.9,10.57A119.14,119.14,0,0,1,299.21,184.4Z"></path><path class="cls-5" d="M304.91,207.66c-28.43,51.85-20.29,130.25-13.32,170.86A107,107,0,0,1,305,366.77h0c23.66-18.89,39.83-25.12,61.43-26-37.31-13-61.9,13.41-70.89,25.62,1.07-5.5,18.42-84.81,113-17.54-37.42,13-62.65,36.64-84.88,35.82h0c-9.78.3-16.34-3-22.83-5a20.33,20.33,0,0,0-7.32,8.87c.23,1.21.46,2.36.68,3.45h0S301,417,301,425c0,5.45,2.78,23.86,4.56,35.07.44,2.83.83,5.2,1.09,6.78,0,.21.06.41.09.59q.11.76.24,1.56c3.29,20,15.5,48.42,55,51,67,2,80,19,88,45-18-26-28-30-64-33a85.93,85.93,0,0,1,24,43c-15-29-30-36-41-42-70,10-78-57-78-57s-4,26-4,40,11,41,31,58c24.61,16.73,31.78,48,32,49-.49-.63-16.19-21.09-29-28,14,43,4,73-16,99,25-63,4-92-10-119-31-52-25-61-25-88-14,23-6,27-22,63s-39,47-74,58c14.9-7.09,39.86-27.78,55.24-48.48C219,562.24,200,565.14,181,557c0,0,25,0,39-7s19.41-14.22,25.19-34.53l0-.09a168.58,168.58,0,0,1,16.21-42.74v0c.34-.95,8.6-23.84,10.56-34.61,1.86-10.2.35-40.09.12-44.37,0-.11,0-.21,0-.29-1.5-21-4.17-66.61-2.37-103.63-3.31-9.42-10.87-24.08-26.73-28.71-9.62,6.66-18.69,15.51-34.92,20.06,0,0-.05,0-.07,0-36.11,12.82-89.79-13-158-15.09,120.72-159.36,190.15-37.95,194.75-29.46C223.67,221.11,169.64,190.41,115,231c36-9.65,65.77-7.76,114.4,11.08h0c.94.31,29.38,10,42.47,22.68,0-.26.07-.52.11-.77a231,231,0,0,1,15.64-56.75c2-4.81,4-8.92,5.67-12.28s3.76-6.87,5.9-10.57l.06-.09C323.37,142.74,369.58,80.87,441,56c-64.75,20.06-136.14,71.72-161.11,126.93C275.5,130.17,292.67,9,543,9,491.29,43.48,457,205.41,304.91,207.66Z"></path><path class="cls-2" d="M306.65,466.85c-.26-1.58-.65-4-1.09-6.78L306,460C306.11,462.08,306.31,464.38,306.65,466.85Z"></path><path class="cls-2" d="M307,469h0q-.14-.79-.24-1.56C306.91,468.44,307,469,307,469Z"></path><path class="cls-6" d="M54,443l.86-.6c0,.39-.1.78-.14,1.17Z"></path><path class="cls-6" d="M518,380l-.18.37a1,1,0,0,0-.07-.15Z"></path><path class="cls-7" d="M134.69,377a21.28,21.28,0,0,1-19.9,22.58c-11.73.74-30.66,3.41-56.51,24.9,5.7-26.1,21.15-60.9,53.83-67.38A21.28,21.28,0,0,1,134.69,377Z"></path><path class="cls-8" d="M96.86,384.53A7.49,7.49,0,0,1,95,395c-3.38,2.39-22.65,11.65-29.31,18,6.55-15.43,14.7-26.68,20.68-30.29A7.51,7.51,0,0,1,96.86,384.53Z"></path><path class="cls-9" d="M123,332.62a14.64,14.64,0,0,1-12.25,16.69c-8,1.22-20.81,4.21-37.2,20.52,2.31-18.23,10.76-43,32.76-49.46A14.64,14.64,0,0,1,123,332.62Z"></path><path class="cls-8" d="M97.54,340.11a5.16,5.16,0,0,1-.6,7.27c-2.18,1.84-14.82,9.37-19,14.14,3.55-11,8.44-19.18,12.32-22A5.16,5.16,0,0,1,97.54,340.11Z"></path><path class="cls-10" d="M166.38,349.89a11.79,11.79,0,0,1-15.63,5.82c-5.93-2.71-15.87-6.37-34.12-2.64,9.62-11.26,26.28-24.2,43.93-18.81A11.79,11.79,0,0,1,166.38,349.89Z"></path><path class="cls-8" d="M145.93,343.68a4.15,4.15,0,0,1-3.63,4.62c-2.28.28-14.11-.25-19,1.12,7.25-5.82,14.17-9.18,18-9.37A4.16,4.16,0,0,1,145.93,343.68Z"></path></g></g></svg>