<svg xmlns="http://www.w3.org/2000/svg" xmlns:xlink="http://www.w3.org/1999/xlink" viewBox="0 0 298.64 85.2"><defs><style>.cls-1{fill:url(#linear-gradient);}.cls-2,.cls-4{fill:#5ca500;}.cls-3{fill:url(#linear-gradient-2);}.cls-4{opacity:0.39;}.cls-5{fill:url(#linear-gradient-3);}.cls-6{fill:#0685d2;}.cls-7{fill:url(#linear-gradient-4);}.cls-8{fill:#1dcaff;}.cls-9{fill:url(#linear-gradient-5);}.cls-10{fill:url(#linear-gradient-6);}</style><linearGradient id="linear-gradient" y1="42.6" x2="62" y2="42.6" gradientUnits="userSpaceOnUse"><stop offset="0" stop-color="#0685d2"/><stop offset="1" stop-color="#076da0"/></linearGradient><linearGradient id="linear-gradient-2" x1="5.59" y1="57.69" x2="56.52" y2="57.69" gradientUnits="userSpaceOnUse"><stop offset="0" stop-color="#0bacfc"/><stop offset="1" stop-color="#0685d2"/></linearGradient><linearGradient id="linear-gradient-3" x1="28.92" y1="7.04" x2="48.11" y2="68.17" gradientUnits="userSpaceOnUse"><stop offset="0" stop-color="#5ca500"/><stop offset="1" stop-color="#3e6303"/></linearGradient><linearGradient id="linear-gradient-4" x1="123.09" y1="72.17" x2="115.54" y2="72.17" gradientTransform="translate(-101.34 -42.25) rotate(5.65)" gradientUnits="userSpaceOnUse"><stop offset="0.01" stop-color="#0bacfc" stop-opacity="0.61"/><stop offset="1" stop-color="#0685d2"/></linearGradient><linearGradient id="linear-gradient-5" x1="25.04" y1="40.13" x2="19.85" y2="40.13" gradientTransform="translate(-11.68 -3.96) rotate(0.55)" xlink:href="#linear-gradient-4"/><linearGradient id="linear-gradient-6" x1="719.47" y1="72.03" x2="715.28" y2="72.03" gradientTransform="translate(-540.33 -422.91) rotate(33.86)" xlink:href="#linear-gradient-4"/></defs><title>Asset 16</title><g id="Layer_2" data-name="Layer 2"><g id="Layer_1-2" data-name="Layer 1"><path class="cls-1" d="M30.26,0C6.54,30.16,0,37.08,0,54.2a31,31,0,0,0,62,0C62,37.08,59.05,32.69,30.26,0ZM31,77.28A27.08,27.08,0,0,1,3.93,50.2c0-15,5.71-21,26.44-47.35C55.52,31.41,58.1,35.24,58.1,50.2A27.08,27.08,0,0,1,31,77.28Z"/><path class="cls-2" d="M30.93,20.56c-.18.35-.39.79-.6,1.29h-.07C30.45,21.46,30.67,21,30.93,20.56Z"/><path class="cls-3" d="M56.52,49.82a25.47,25.47,0,1,1-50.75-3s0-.08,0-.12c1-.71,10.28-6.94,18-4,8.22,3.06,12.86,6.64,19.08,4.64,6-1.92,11.26-6.75,11.68-7.15v0A25.48,25.48,0,0,1,56.52,49.82Z"/><path class="cls-4" d="M31.55,19.44c-.23.39-.43.77-.62,1.12A12.57,12.57,0,0,1,31.55,19.44Z"/><path class="cls-5" d="M32.15,21.9c-3,5.46-2.14,13.73-1.4,18a11.56,11.56,0,0,1,1.41-1.24h0c2.49-2,4.2-2.65,6.47-2.74-3.93-1.37-6.52,1.41-7.47,2.7.11-.58,1.94-8.94,11.91-1.85-3.94,1.37-6.6,3.86-9,3.78h0A6.56,6.56,0,0,1,31.71,40a2.06,2.06,0,0,0-.77.93c0,.13,0,.25.07.36h0a23.94,23.94,0,0,1,.73,3.49c0,.58.29,2.52.48,3.7.05.3.09.55.11.72v.06l0,.16a5.94,5.94,0,0,0,5.8,5.38c7.06.21,8.44,2,9.28,4.74-1.9-2.74-3-3.16-6.75-3.47a9,9,0,0,1,2.53,4.53,8.88,8.88,0,0,0-4.32-4.43c-7.38,1.06-8.23-6-8.23-6a38.16,38.16,0,0,0-.42,4.22,9.52,9.52,0,0,0,3.27,6.11,9.27,9.27,0,0,1,3.37,5.17,13,13,0,0,0-3-2.95,10.42,10.42,0,0,1-1.69,10.44c2.64-6.65.42-9.7-1-12.55-3.27-5.48-2.64-6.43-2.64-9.28C27,53.78,27.84,54.2,26.15,58s-4.11,5-7.8,6.12A19.22,19.22,0,0,0,24.17,59a8,8,0,0,1-5.08-.27A11.56,11.56,0,0,0,23.2,58c1.47-.73,2-1.5,2.65-3.64h0a17.23,17.23,0,0,1,1.71-4.5h0a35.66,35.66,0,0,0,1.11-3.65,31.52,31.52,0,0,0,0-4.67v0a101.05,101.05,0,0,1-.25-10.92,4.56,4.56,0,0,0-2.82-3,11.15,11.15,0,0,1-3.68,2.12h0c-3.8,1.35-9.46-1.37-16.66-1.59,12.73-16.81,20.05-4,20.54-3.11-2.23-1.63-7.92-4.86-13.68-.58,3.79-1,6.93-.82,12.06,1.17h0a14.62,14.62,0,0,1,4.48,2.39s0-.06,0-.08a24.53,24.53,0,0,1,1.65-6c.21-.5.42-.94.6-1.29s.39-.73.62-1.12h0C34.1,15.05,39,8.53,46.5,5.9c-6.83,2.12-14.35,7.57-17,13.39C29.05,13.73,30.86,1,57.26,1,51.8,4.58,48.19,21.66,32.15,21.9Z"/><path class="cls-2" d="M32.33,49.23c0-.17-.06-.42-.11-.72h.05C32.28,48.72,32.3,49,32.33,49.23Z"/><path class="cls-2" d="M32.37,49.45h0l0-.16Z"/><path class="cls-6" d="M5.69,46.71l.09-.06s0,.08,0,.12Z"/><path class="cls-6" d="M54.62,40.07l0,0v0Z"/><path class="cls-7" d="M14.2,39.75a2.24,2.24,0,0,1-2.1,2.38,9.73,9.73,0,0,0-6,2.63c.61-2.76,2.24-6.43,5.68-7.11A2.24,2.24,0,0,1,14.2,39.75Z"/><path class="cls-8" d="M10.21,40.55a.79.79,0,0,1-.19,1.1,24.17,24.17,0,0,0-3.09,1.9,7.45,7.45,0,0,1,2.18-3.2A.79.79,0,0,1,10.21,40.55Z"/><path class="cls-9" d="M13,35.07a1.55,1.55,0,0,1-1.29,1.76A6.7,6.7,0,0,0,7.75,39c.25-1.93,1.14-4.54,3.46-5.22A1.55,1.55,0,0,1,13,35.07Z"/><path class="cls-8" d="M10.29,35.86a.55.55,0,0,1-.07.77,16.67,16.67,0,0,0-2,1.49,5.05,5.05,0,0,1,1.3-2.32A.54.54,0,0,1,10.29,35.86Z"/><path class="cls-10" d="M17.54,36.89a1.24,1.24,0,0,1-1.64.62,5.39,5.39,0,0,0-3.6-.28c1-1.19,2.77-2.55,4.63-2A1.23,1.23,0,0,1,17.54,36.89Z"/><path class="cls-8" d="M15.39,36.24a.45.45,0,0,1-.39.49,12.68,12.68,0,0,0-2,.11,4.09,4.09,0,0,1,1.9-1A.44.44,0,0,1,15.39,36.24Z"/><path class="cls-2" d="M73.72,24.25V34.71h12.1V24.25h3.26v25H85.82V37.54H73.72V49.26H70.49v-25Z"/><path class="cls-2" d="M100,49.26V38.65l-7.91-14.4h3.67l3.53,6.9c1,1.89,1.71,3.42,2.49,5.16h.07c.71-1.63,1.56-3.27,2.53-5.16l3.6-6.9h3.67l-8.39,14.36V49.26Z"/><path class="cls-2" d="M114.25,24.58a45.68,45.68,0,0,1,6.86-.52c4.64,0,8,1.08,10.14,3.12s3.52,4.94,3.52,9-1.26,7.43-3.6,9.73-6.2,3.6-11.06,3.6a50.91,50.91,0,0,1-5.86-.3Zm3.23,22.12a20,20,0,0,0,3.26.19c6.91,0,10.66-3.86,10.66-10.62,0-5.9-3.31-9.65-10.14-9.65a17.87,17.87,0,0,0-3.78.34Z"/><path class="cls-2" d="M139,24.58a34,34,0,0,1,6.2-.52c3.45,0,5.67.63,7.23,2a6.21,6.21,0,0,1,2,4.75,6.57,6.57,0,0,1-4.71,6.39v.11c1.93.67,3.08,2.45,3.67,5a39.79,39.79,0,0,0,1.93,6.86h-3.34a32.36,32.36,0,0,1-1.67-6c-.74-3.45-2.08-4.75-5-4.86h-3V49.26H139ZM142.2,36h3.3c3.45,0,5.64-1.9,5.64-4.75,0-3.23-2.34-4.64-5.75-4.68a13.13,13.13,0,0,0-3.19.3Z"/><path class="cls-2" d="M180.43,36.5c0,8.61-5.24,13.17-11.62,13.17-6.61,0-11.25-5.12-11.25-12.69,0-7.94,4.94-13.14,11.62-13.14S180.43,29.07,180.43,36.5ZM161,36.9c0,5.35,2.9,10.14,8,10.14s8-4.72,8-10.4c0-5-2.6-10.17-8-10.17S161,31.41,161,36.9Z"/><path class="cls-2" d="M184.62,24.54a37.46,37.46,0,0,1,6.2-.48c3.19,0,5.53.74,7,2.08A6.71,6.71,0,0,1,200,31.37a7.38,7.38,0,0,1-1.93,5.35c-1.71,1.82-4.49,2.75-7.64,2.75a10.84,10.84,0,0,1-2.6-.23v10h-3.23Zm3.23,12.07a11,11,0,0,0,2.67.26c3.9,0,6.27-1.9,6.27-5.35s-2.34-4.9-5.9-4.9a13.38,13.38,0,0,0-3,.26Z"/><path class="cls-2" d="M225.74,36.5c0,8.61-5.23,13.17-11.61,13.17-6.61,0-11.25-5.12-11.25-12.69,0-7.94,4.94-13.14,11.62-13.14C221.33,23.84,225.74,29.07,225.74,36.5Zm-19.41.4c0,5.35,2.9,10.14,8,10.14s8-4.72,8-10.4c0-5-2.6-10.17-8-10.17S206.33,31.41,206.33,36.9Z"/><path class="cls-2" d="M229.94,49.26v-25h3.52l8,12.65A71.26,71.26,0,0,1,246,45l.08,0c-.3-3.34-.37-6.39-.37-10.29V24.25h3v25h-3.27l-7.94-12.69a77.7,77.7,0,0,1-4.68-8.35l-.11,0c.19,3.15.26,6.16.26,10.31V49.26Z"/><path class="cls-2" d="M257.59,24.25v25h-3.23v-25Z"/><path class="cls-2" d="M280.71,48.45a16.07,16.07,0,0,1-6.6,1.19c-7.06,0-12.36-4.46-12.36-12.66,0-7.83,5.3-13.14,13.06-13.14A13.49,13.49,0,0,1,280.75,25L280,27.59a11.66,11.66,0,0,0-5.05-1c-5.86,0-9.76,3.75-9.76,10.32,0,6.12,3.53,10.06,9.61,10.06a12.9,12.9,0,0,0,5.27-1Z"/><path class="cls-2" d="M284.31,45.33A11.45,11.45,0,0,0,290.1,47c3.31,0,5.24-1.74,5.24-4.27,0-2.33-1.34-3.67-4.72-5-4.08-1.45-6.61-3.56-6.61-7.09,0-3.9,3.23-6.79,8.1-6.79a11.41,11.41,0,0,1,5.53,1.22l-.89,2.64A9.93,9.93,0,0,0,292,26.51c-3.42,0-4.72,2-4.72,3.75,0,2.34,1.52,3.49,5,4.83,4.24,1.63,6.39,3.67,6.39,7.34,0,3.87-2.86,7.21-8.76,7.21A12.91,12.91,0,0,1,283.5,48Z"/><path class="cls-6" d="M73.62,61.2l-2.39-9.44h1.29l1.12,4.78c.28,1.18.53,2.35.7,3.26h0c.16-.93.45-2.06.77-3.27l1.27-4.77h1.27l1.15,4.79c.26,1.12.52,2.24.66,3.24h0c.19-1,.46-2.09.75-3.26l1.25-4.77h1.24L80.08,61.2H78.8l-1.19-4.91A28.16,28.16,0,0,1,77,53.21h0a30.69,30.69,0,0,1-.73,3.08L74.9,61.2Z"/><path class="cls-6" d="M91.89,56.78H88.22v3.4h4.09v1H87V51.76h5.1v1H88.22v3h3.67Z"/><path class="cls-6" d="M97,51.89a12,12,0,0,1,2.23-.2,3.88,3.88,0,0,1,2.59.69,2,2,0,0,1,.79,1.67,2.25,2.25,0,0,1-1.6,2.07v0a2.42,2.42,0,0,1,2,2.36,2.59,2.59,0,0,1-.8,1.9,4.78,4.78,0,0,1-3.27.88A15.51,15.51,0,0,1,97,61.18Zm1.22,3.86H99.3c1.29,0,2-.67,2-1.58,0-1.1-.84-1.54-2.07-1.54a4.63,4.63,0,0,0-1.08.09Zm0,4.53a6.69,6.69,0,0,0,1,.06c1.26,0,2.43-.47,2.43-1.84s-1.11-1.82-2.44-1.82h-1Z"/><path class="cls-6" d="M107.47,59.72a4.31,4.31,0,0,0,2.19.62c1.24,0,2-.66,2-1.62s-.5-1.38-1.78-1.87c-1.54-.55-2.49-1.35-2.49-2.68s1.22-2.56,3-2.56a4.27,4.27,0,0,1,2.09.46l-.33,1a3.75,3.75,0,0,0-1.8-.45c-1.29,0-1.78.77-1.78,1.41,0,.89.58,1.32,1.88,1.82,1.6.62,2.41,1.39,2.41,2.78s-1.08,2.71-3.31,2.71a4.86,4.86,0,0,1-2.41-.6Z"/><path class="cls-6" d="M118.84,51.76V61.2h-1.22V51.76Z"/><path class="cls-6" d="M125.84,52.8H123v-1h7v1h-2.89v8.4h-1.23Z"/><path class="cls-6" d="M139,56.78h-3.67v3.4h4.09v1h-5.31V51.76h5.1v1h-3.88v3H139Z"/><path class="cls-6" d="M149.93,59.72a4.31,4.31,0,0,0,2.19.62c1.25,0,2-.66,2-1.62s-.5-1.38-1.77-1.87c-1.55-.55-2.5-1.35-2.5-2.68s1.22-2.56,3.06-2.56a4.26,4.26,0,0,1,2.08.46l-.33,1a3.75,3.75,0,0,0-1.8-.45c-1.29,0-1.78.77-1.78,1.41,0,.89.58,1.32,1.88,1.82,1.6.62,2.41,1.39,2.41,2.78s-1.08,2.71-3.3,2.71a4.8,4.8,0,0,1-2.41-.6Z"/><path class="cls-6" d="M161.61,58.23l-1,3h-1.26l3.21-9.44h1.47l3.22,9.44H166l-1-3Zm3.1-.95-.93-2.72c-.21-.61-.35-1.17-.49-1.72h0c-.14.56-.29,1.14-.47,1.71l-.93,2.73Z"/><path class="cls-6" d="M179.63,57.06c-.07-1.32-.15-2.9-.14-4.08h0c-.32,1.11-.71,2.28-1.19,3.59l-1.67,4.58h-.92l-1.53-4.5c-.45-1.33-.83-2.55-1.09-3.67h0c0,1.18-.1,2.76-.18,4.18l-.25,4h-1.17l.66-9.44h1.56l1.61,4.57c.39,1.16.71,2.2.95,3.18h0c.24-.95.58-2,1-3.18l1.68-4.57h1.55l.59,9.44h-1.19Z"/><path class="cls-6" d="M186,51.88a13.82,13.82,0,0,1,2.34-.19,3.85,3.85,0,0,1,2.65.79,2.52,2.52,0,0,1,.82,2,2.8,2.8,0,0,1-.72,2,3.92,3.92,0,0,1-2.89,1,4.19,4.19,0,0,1-1-.09V61.2H186Zm1.22,4.55a4.09,4.09,0,0,0,1,.1c1.47,0,2.37-.72,2.37-2s-.89-1.85-2.23-1.85a4.88,4.88,0,0,0-1.15.1Z"/><path class="cls-6" d="M196.54,51.76h1.22v8.42h4v1h-5.25Z"/><path class="cls-6" d="M211.12,56.78h-3.67v3.4h4.09v1h-5.31V51.76h5.1v1h-3.88v3h3.67Z"/><path class="cls-6" d="M228.84,60.9a6.13,6.13,0,0,1-2.49.44,4.41,4.41,0,0,1-4.67-4.77,4.7,4.7,0,0,1,4.93-5,5,5,0,0,1,2.24.42l-.29,1a4.49,4.49,0,0,0-1.9-.39c-2.22,0-3.69,1.42-3.69,3.9,0,2.31,1.33,3.79,3.63,3.79a4.86,4.86,0,0,0,2-.39Z"/><path class="cls-6" d="M241.22,56.39c0,3.25-2,5-4.39,5s-4.24-1.94-4.24-4.79,1.86-5,4.38-5S241.22,53.58,241.22,56.39Zm-7.33.15c0,2,1.09,3.82,3,3.82s3-1.78,3-3.92c0-1.88-1-3.84-3-3.84S233.89,54.47,233.89,56.54Z"/><path class="cls-6" d="M245.87,61.2V51.76h1.34l3,4.78a27.16,27.16,0,0,1,1.7,3.07l0,0c-.11-1.26-.14-2.41-.14-3.88v-4H253V61.2h-1.23l-3-4.79A28.71,28.71,0,0,1,247,53.26l-.05,0c.07,1.19.1,2.32.1,3.89v4Z"/><path class="cls-6" d="M264.76,60.9a6.09,6.09,0,0,1-2.49.44,4.41,4.41,0,0,1-4.66-4.77,4.7,4.7,0,0,1,4.93-5,5,5,0,0,1,2.24.42l-.3,1a4.49,4.49,0,0,0-1.9-.39c-2.21,0-3.69,1.42-3.69,3.9,0,2.31,1.34,3.79,3.63,3.79a4.86,4.86,0,0,0,2-.39Z"/><path class="cls-6" d="M274.25,56.78h-3.67v3.4h4.09v1h-5.3V51.76h5.09v1h-3.88v3h3.67Z"/><path class="cls-6" d="M279.33,51.88a13.82,13.82,0,0,1,2.34-.19,3.85,3.85,0,0,1,2.65.79,2.53,2.53,0,0,1,.83,2,2.8,2.8,0,0,1-.73,2,3.92,3.92,0,0,1-2.89,1,4.19,4.19,0,0,1-1-.09V61.2h-1.22Zm1.22,4.55a4.09,4.09,0,0,0,1,.1c1.47,0,2.37-.72,2.37-2s-.88-1.85-2.23-1.85a4.88,4.88,0,0,0-1.15.1Z"/><path class="cls-6" d="M291.65,52.8h-2.87v-1h7v1h-2.88v8.4h-1.24Z"/></g></g></svg>